<svg width="17" height="10" viewBox="0 0 17 10" fill="none" xmlns="http://www.w3.org/2000/svg">
<path d="M16.6464 0.656514C16.5181 0.531132 16.3457 0.460938 16.1663 0.460938C15.9869 0.460938 15.8145 0.531132 15.6862 0.656514L8.50011 7.66145L1.31549 0.656514C1.18712 0.531132 1.0148 0.460938 0.835361 0.460938C0.655922 0.460937 0.483603 0.531132 0.355236 0.656514C0.292643 0.717458 0.242891 0.790325 0.208921 0.870812C0.174952 0.951299 0.157452 1.03778 0.157452 1.12514C0.157452 1.2125 0.174952 1.29898 0.208921 1.37947C0.242891 1.45995 0.292643 1.53282 0.355236 1.59376L7.99842 9.04289C8.13265 9.17372 8.31267 9.24694 8.50011 9.24694C8.68755 9.24694 8.86758 9.17372 9.0018 9.04289L16.645 1.59376C16.7076 1.53282 16.7573 1.45995 16.7913 1.37947C16.8253 1.29898 16.8428 1.2125 16.8428 1.12514C16.8428 1.03778 16.8253 0.951299 16.7913 0.870812C16.7573 0.790325 16.7076 0.717458 16.645 0.656514H16.6464Z" fill="white"/>
</svg>
