<svg width="34" height="34" viewBox="0 0 34 34" fill="none" xmlns="http://www.w3.org/2000/svg">
<path d="M13.7657 29.0403L24.7775 17.7438C24.9709 17.5453 25.0791 17.2792 25.0791 17.0021C25.0791 16.7251 24.9709 16.4589 24.7775 16.2605L13.7657 4.95976C13.6756 4.86723 13.5679 4.79369 13.4489 4.74347C13.3299 4.69325 13.2021 4.66739 13.073 4.66739C12.9438 4.66739 12.816 4.69325 12.697 4.74347C12.578 4.79369 12.4703 4.86723 12.3802 4.95976C12.1949 5.14952 12.0911 5.40425 12.0911 5.66951C12.0911 5.93477 12.1949 6.1895 12.3802 6.37926L22.7353 17.0021L12.3802 27.6229C12.1955 27.8125 12.0921 28.0668 12.0921 28.3316C12.0921 28.5963 12.1955 28.8506 12.3802 29.0403C12.4703 29.1328 12.578 29.2063 12.697 29.2566C12.816 29.3068 12.9438 29.3326 13.073 29.3326C13.2021 29.3326 13.3299 29.3068 13.4489 29.2566C13.5679 29.2063 13.6756 29.1328 13.7657 29.0403Z" fill="white"/>
</svg>
