<svg width="262" height="72" viewBox="0 0 262 72" fill="none" xmlns="http://www.w3.org/2000/svg">
<path d="M153.983 0L0 32.0597V72H153.983V0Z" fill="#723BF0"/>
<path d="M158.513 54.2277C158.513 50.1007 161.873 47.1921 166.607 47.1921C169.909 47.1921 172.437 48.7119 173.342 51.2209L168.958 53.3565C168.383 52.0921 167.558 51.5681 166.581 51.5681C165.3 51.5681 164.25 52.459 164.25 54.2277C164.25 55.9964 165.3 56.907 166.581 56.907C167.558 56.907 168.383 56.3895 168.958 55.1186L173.342 57.2607C172.437 59.7697 169.935 61.2829 166.607 61.2829C161.873 61.2829 158.513 58.3744 158.513 54.2277Z" fill="#723BF0"/>
<path d="M190.924 53.7296V61.0338H185.642V59.2454C184.982 60.6145 183.662 61.2827 181.76 61.2827C178.406 61.2827 176.676 59.3961 176.676 57.0574C176.676 54.4371 178.657 52.9566 182.942 52.9566H185.22C185.042 51.915 184.243 51.3713 182.638 51.3713C181.387 51.3654 180.164 51.7379 179.132 52.4391L177.33 48.7379C179.213 47.7013 181.336 47.1685 183.49 47.1919C188.217 47.1919 190.924 49.2095 190.924 53.7296ZM185.266 56.612V55.6556H183.86C182.658 55.6556 182.137 56.0486 182.137 56.7954C182.137 57.4177 182.632 57.8894 183.457 57.8894C183.859 57.9074 184.256 57.7914 184.583 57.5599C184.911 57.3284 185.152 56.9947 185.266 56.612Z" fill="#723BF0"/>
<path d="M210.131 54.2539C210.131 58.6233 207.1 61.2829 203.528 61.2829C202.899 61.3265 202.268 61.2459 201.671 61.0457C201.074 60.8456 200.522 60.5299 200.049 60.1169V65.8554H194.384V47.4411H199.771V48.5613C200.597 47.6441 201.825 47.1921 203.528 47.1921C207.1 47.1921 210.131 49.878 210.131 54.2539ZM204.4 54.2539C204.4 52.4852 203.423 51.5681 202.168 51.5681C200.914 51.5681 199.943 52.4852 199.943 54.2539C199.943 56.0226 200.914 56.8742 202.168 56.8742C203.423 56.8742 204.4 56.0161 204.4 54.2539Z" fill="#723BF0"/>
<path d="M213.59 43.4908C213.59 41.8793 214.911 40.6346 216.997 40.6346C219.084 40.6346 220.404 41.7745 220.404 43.3925C220.404 45.1088 219.084 46.347 216.997 46.347C214.911 46.347 213.59 45.1089 213.59 43.4908ZM214.165 47.4213H219.823V61.0339H214.191L214.165 47.4213Z" fill="#723BF0"/>
<path d="M235.2 60.5625C234.119 61.0849 232.923 61.3326 231.721 61.2831C227.938 61.2831 225.739 59.5209 225.739 55.7673V52.2888H223.857V48.188H225.739V44.3885H231.397V48.188H234.204V52.2888H231.397V55.7149C231.377 55.8797 231.392 56.0469 231.441 56.2055C231.491 56.364 231.575 56.5102 231.686 56.6343C231.797 56.7583 231.934 56.8573 232.087 56.9247C232.24 56.9921 232.405 57.0263 232.573 57.0251C233.026 57.0269 233.471 56.8996 233.854 56.6582L235.2 60.5625Z" fill="#723BF0"/>
<path d="M252.889 53.7297V61.0339H247.607V59.2455C246.947 60.6146 245.626 61.2828 243.725 61.2828C240.37 61.2828 238.641 59.3962 238.641 57.0575C238.641 54.4372 240.621 52.9567 244.9 52.9567H247.204C247.032 51.9151 246.233 51.3714 244.629 51.3714C243.378 51.3647 242.155 51.7372 241.123 52.4392L239.321 48.738C241.204 47.7 243.327 47.1671 245.481 47.192C250.182 47.192 252.889 49.2096 252.889 53.7297ZM247.204 56.6121V55.6556H245.804C244.603 55.6556 244.074 56.0487 244.074 56.7955C244.074 57.4178 244.576 57.8895 245.395 57.8895C245.797 57.9098 246.195 57.7947 246.523 57.5629C246.852 57.331 247.092 56.996 247.204 56.6121Z" fill="#723BF0"/>
<path d="M256.342 42.5996H262V61.0336H256.342V42.5996Z" fill="#723BF0"/>
<path d="M12.4654 48.0636V51.0705H19.7809V55.4923H12.4654V61.0605H6.55615V43.6418H20.8043V48.0636H12.4654Z" fill="white"/>
<path d="M53.9887 56.6649H52.3843V61.0343H46.4883V43.6418H54.9197C59.7989 43.6418 62.9021 46.177 62.9021 50.1927C62.9465 51.324 62.658 52.4437 62.0718 53.415C61.4856 54.3863 60.627 55.1673 59.6008 55.6626L63.2784 61.0277H56.973L53.9887 56.6649ZM54.5433 48.1488H52.3843V52.2234H54.5433C56.1675 52.2234 56.9466 51.457 56.9466 50.1861C56.9466 48.9152 56.1675 48.1619 54.5433 48.1619V48.1488Z" fill="white"/>
<path d="M81.9038 61.0343L81.8575 53.1078L78.0479 59.4686H75.4465L71.6369 53.3829V61.0343H66.2559V43.6418H71.1153L76.8198 52.9112L82.3857 43.6418H87.2386L87.2914 61.0343H81.9038Z" fill="white"/>
<path d="M90.2627 53.206V43.6418H96.1719V53.0357C96.1719 55.6953 97.2019 56.6845 98.8525 56.6845C100.503 56.6845 101.533 55.6953 101.533 53.0357V43.6418H107.343V53.206C107.343 58.4467 104.187 61.4339 98.8063 61.4339C93.4253 61.4339 90.2627 58.427 90.2627 53.206Z" fill="white"/>
<path d="M110.314 43.6418H116.257V56.488H124.18V61.0343H110.314V43.6418Z" fill="white"/>
<path d="M140.964 58.0012H134.302L133.126 61.0343H127.118L134.777 43.6418H140.587L148.253 61.0343H142.139L140.964 58.0012ZM139.339 53.7825L137.636 49.4066L135.932 53.7825H139.339Z" fill="white"/>
<path d="M41.0943 58.4331C42.0054 56.9429 42.5005 55.2392 42.5291 53.4965C42.5576 51.7538 42.1184 50.035 41.2566 48.5162C40.3948 46.9975 39.1414 45.7335 37.6248 44.8539C36.1083 43.9743 34.3833 43.5107 32.6266 43.5107C30.87 43.5107 29.1449 43.9743 27.6284 44.8539C26.1119 45.7335 24.8585 46.9975 23.9966 48.5162C23.1348 50.035 22.6957 51.7538 22.7242 53.4965C22.7527 55.2392 23.2479 56.9429 24.1589 58.4331H21.749V61.0534H43.5372V58.4331H41.0943ZM32.6233 49.4847C33.4068 49.4847 34.1727 49.7152 34.8242 50.1471C35.4757 50.579 35.9834 51.1929 36.2833 51.9111C36.5831 52.6293 36.6616 53.4196 36.5087 54.182C36.3558 54.9444 35.9785 55.6448 35.4245 56.1945C34.8705 56.7442 34.1646 57.1185 33.3962 57.2702C32.6277 57.4218 31.8312 57.344 31.1073 57.0465C30.3835 56.749 29.7648 56.2452 29.3295 55.5989C28.8942 54.9525 28.6618 54.1926 28.6618 53.4152C28.6618 52.3728 29.0792 51.373 29.8221 50.6359C30.5651 49.8988 31.5727 49.4847 32.6233 49.4847Z" fill="white"/>
<path d="M41.0941 58.4331C42.0051 56.9429 42.5003 55.2392 42.5288 53.4965C42.5573 51.7538 42.1182 50.035 41.2564 48.5162C40.3946 46.9975 39.1411 45.7335 37.6246 44.8539C36.1081 43.9743 34.383 43.5107 32.6264 43.5107C30.8697 43.5107 29.1447 43.9743 27.6282 44.8539C26.1117 45.7335 24.8582 46.9975 23.9964 48.5162C23.1346 50.035 22.6954 51.7538 22.724 53.4965C22.7525 55.2392 23.2477 56.9429 24.1587 58.4331H41.0941ZM32.6231 49.4847C33.4066 49.4847 34.1725 49.7152 34.824 50.1471C35.4754 50.579 35.9832 51.1929 36.283 51.9111C36.5829 52.6293 36.6613 53.4196 36.5085 54.182C36.3556 54.9444 35.9783 55.6448 35.4243 56.1945C34.8703 56.7442 34.1644 57.1185 33.3959 57.2702C32.6275 57.4218 31.831 57.344 31.1071 57.0465C30.3832 56.749 29.7645 56.2452 29.3292 55.5989C28.8939 54.9525 28.6616 54.1926 28.6616 53.4152C28.6616 52.3728 29.079 51.373 29.8219 50.6359C30.5648 49.8988 31.5724 49.4847 32.6231 49.4847Z" fill="white"/>
</svg>
