<svg width="15" height="12" viewBox="0 0 15 12" fill="none" xmlns="http://www.w3.org/2000/svg">
<path d="M0.046875 1.555C0.141392 1.11324 0.373739 0.718813 0.705864 0.436308C1.03799 0.153804 1.4502 -3.04944e-05 1.875 4.53414e-09H13.125C13.5498 -3.04944e-05 13.962 0.153804 14.2941 0.436308C14.6263 0.718813 14.8586 1.11324 14.9531 1.555L7.5 6.414L0.046875 1.555ZM0 2.697V9.801L5.44031 6.243L0 2.697ZM6.33844 6.83L0.179063 10.857C0.331244 11.1993 0.571431 11.4884 0.87167 11.6908C1.17191 11.8931 1.51985 12.0004 1.875 12H13.125C13.4801 12.0001 13.8279 11.8926 14.128 11.6901C14.428 11.4876 14.668 11.1983 14.82 10.856L8.66062 6.829L7.5 7.586L6.33844 6.829V6.83ZM9.55969 6.244L15 9.801V2.697L9.55969 6.243V6.244Z" fill="#723BF0"/>
</svg>
