<svg width="14" height="15" viewBox="0 0 14 15" fill="none" xmlns="http://www.w3.org/2000/svg">
<path d="M9.33393 10.863L10.5395 9.65902C10.7018 9.49887 10.9073 9.38924 11.1308 9.34344C11.3544 9.29764 11.5864 9.31764 11.7988 9.40102L13.2681 9.9869C13.4827 10.0739 13.6667 10.2224 13.797 10.4137C13.9272 10.605 13.9979 10.8306 14 11.0619V13.7494C13.9988 13.9068 13.9656 14.0623 13.9026 14.2065C13.8396 14.3508 13.748 14.4808 13.6334 14.5888C13.5188 14.6967 13.3834 14.7804 13.2355 14.8348C13.0877 14.8891 12.9303 14.913 12.7729 14.9051C2.47744 14.2654 0.400043 5.55786 0.00716727 2.22534C-0.0110703 2.06169 0.00559289 1.89604 0.0560605 1.73928C0.106528 1.58252 0.189656 1.43821 0.299977 1.31585C0.410297 1.19348 0.545309 1.09583 0.69613 1.02932C0.846951 0.962807 1.01016 0.928943 1.17503 0.929954H3.77447C4.00643 0.930639 4.23288 1.00062 4.4247 1.13089C4.61652 1.26116 4.76493 1.44576 4.85084 1.66096L5.43746 3.12835C5.52371 3.33962 5.54571 3.57159 5.50073 3.79529C5.45574 4.01898 5.34576 4.22447 5.18452 4.3861L3.97898 5.59011C3.97898 5.59011 4.67324 10.2825 9.33393 10.863Z" fill="#723BF0"/>
</svg>
