<svg width="13" height="15" viewBox="0 0 13 15" fill="none" xmlns="http://www.w3.org/2000/svg">
<path d="M6.5 15C6.5 15 12.125 9.66938 12.125 5.625C12.125 4.13316 11.5324 2.70242 10.4775 1.64752C9.42258 0.592632 7.99184 0 6.5 0C5.00816 0 3.57742 0.592632 2.52252 1.64752C1.46763 2.70242 0.875 4.13316 0.875 5.625C0.875 9.66938 6.5 15 6.5 15ZM6.5 8.4375C5.75408 8.4375 5.03871 8.14118 4.51126 7.61374C3.98382 7.08629 3.6875 6.37092 3.6875 5.625C3.6875 4.87908 3.98382 4.16371 4.51126 3.63626C5.03871 3.10882 5.75408 2.8125 6.5 2.8125C7.24592 2.8125 7.96129 3.10882 8.48874 3.63626C9.01618 4.16371 9.3125 4.87908 9.3125 5.625C9.3125 6.37092 9.01618 7.08629 8.48874 7.61374C7.96129 8.14118 7.24592 8.4375 6.5 8.4375Z" fill="#723BF0"/>
</svg>
