<svg width="165" height="47" viewBox="0 0 165 47" fill="none" xmlns="http://www.w3.org/2000/svg">
<path d="M96.9742 0L0 20.9279V47H96.9742V0Z" fill="#723BF0"/>
<path d="M99.8267 35.3986C99.8267 32.7046 101.943 30.8059 104.924 30.8059C107.003 30.8059 108.596 31.798 109.166 33.4358L106.405 34.8298C106.043 34.0045 105.523 33.6624 104.908 33.6624C104.101 33.6624 103.44 34.244 103.44 35.3986C103.44 36.5532 104.101 37.1476 104.908 37.1476C105.523 37.1476 106.043 36.8097 106.405 35.9801L109.166 37.3785C108.596 39.0163 107.02 40.0041 104.924 40.0041C101.943 40.0041 99.8267 38.1054 99.8267 35.3986Z" fill="#723BF0"/>
<path d="M120.239 35.0736V39.8416H116.912V38.6742C116.496 39.5679 115.665 40.0041 114.467 40.0041C112.355 40.0041 111.266 38.7725 111.266 37.2459C111.266 35.5354 112.513 34.569 115.212 34.569H116.646C116.534 33.8891 116.031 33.5341 115.02 33.5341C114.233 33.5303 113.462 33.7734 112.812 34.2312L111.677 31.8151C112.863 31.1384 114.2 30.7906 115.557 30.8059C118.534 30.8059 120.239 32.123 120.239 35.0736ZM116.675 36.9551V36.3308H115.79C115.033 36.3308 114.704 36.5874 114.704 37.0748C114.704 37.4811 115.016 37.789 115.536 37.789C115.789 37.8007 116.039 37.725 116.245 37.5739C116.452 37.4228 116.603 37.2049 116.675 36.9551Z" fill="#723BF0"/>
<path d="M132.334 35.4157C132.334 38.2679 130.425 40.0041 128.176 40.0041C127.78 40.0325 127.382 39.9799 127.006 39.8492C126.63 39.7186 126.283 39.5125 125.985 39.2429V42.9889H122.417V30.9684H125.81V31.6996C126.33 31.101 127.103 30.8059 128.176 30.8059C130.425 30.8059 132.334 32.5592 132.334 35.4157ZM128.725 35.4157C128.725 34.2611 128.109 33.6624 127.319 33.6624C126.529 33.6624 125.918 34.2611 125.918 35.4157C125.918 36.5703 126.529 37.1262 127.319 37.1262C128.109 37.1262 128.725 36.566 128.725 35.4157Z" fill="#723BF0"/>
<path d="M134.513 28.3898C134.513 27.3379 135.344 26.5254 136.658 26.5254C137.972 26.5254 138.804 27.2695 138.804 28.3257C138.804 29.4461 137.972 30.2543 136.658 30.2543C135.344 30.2543 134.513 29.4461 134.513 28.3898ZM134.874 30.9556H138.438V39.8416H134.891L134.874 30.9556Z" fill="#723BF0"/>
<path d="M148.122 39.5333C147.441 39.8744 146.688 40.036 145.931 40.0037C143.548 40.0037 142.164 38.8534 142.164 36.4031V34.1325H140.979V31.4556H142.164V28.9753H145.727V31.4556H147.494V34.1325H145.727V36.3689C145.714 36.4765 145.723 36.5857 145.755 36.6892C145.786 36.7927 145.839 36.8881 145.909 36.9691C145.979 37.0501 146.065 37.1147 146.161 37.1587C146.257 37.2027 146.362 37.225 146.467 37.2242C146.753 37.2254 147.033 37.1423 147.274 36.9847L148.122 39.5333Z" fill="#723BF0"/>
<path d="M159.262 35.0736V39.8416H155.936V38.6742C155.52 39.568 154.688 40.0041 153.491 40.0041C151.378 40.0041 150.289 38.7726 150.289 37.246C150.289 35.5355 151.536 34.569 154.231 34.569H155.682C155.574 33.8891 155.071 33.5342 154.06 33.5342C153.273 33.5298 152.502 33.773 151.852 34.2312L150.717 31.8152C151.903 31.1376 153.24 30.7897 154.597 30.806C157.557 30.806 159.262 32.123 159.262 35.0736ZM155.682 36.9552V36.3308H154.801C154.044 36.3308 153.711 36.5874 153.711 37.0749C153.711 37.4812 154.027 37.789 154.543 37.789C154.796 37.8023 155.047 37.7272 155.253 37.5758C155.46 37.4245 155.611 37.2058 155.682 36.9552Z" fill="#723BF0"/>
<path d="M161.437 27.8079H165V39.8412H161.437V27.8079Z" fill="#723BF0"/>
<path d="M7.85037 31.375V33.3378H12.4575V36.2242H7.85037V39.859H4.12891V28.4885H13.102V31.375H7.85037Z" fill="white"/>
<path d="M34.0004 36.9897H32.99V39.8419H29.2769V28.4885H34.5867C37.6595 28.4885 39.6138 30.1434 39.6138 32.7648C39.6418 33.5032 39.4601 34.2342 39.0909 34.8682C38.7217 35.5023 38.181 36.0121 37.5348 36.3354L39.8508 39.8376H35.8798L34.0004 36.9897ZM34.3497 31.4306H32.99V34.0904H34.3497C35.3726 34.0904 35.8632 33.5901 35.8632 32.7605C35.8632 31.9309 35.3726 31.4391 34.3497 31.4391V31.4306Z" fill="white"/>
<path d="M51.5807 39.8419L51.5516 34.6677L49.1524 38.8199H47.5141L45.1149 34.8473V39.8419H41.7261V28.4885H44.7864L48.379 34.5394L51.8842 28.4885H54.9404L54.9736 39.8419H51.5807Z" fill="white"/>
<path d="M56.8447 34.7318V28.4885H60.5662V34.6206C60.5662 36.3568 61.2148 37.0025 62.2544 37.0025C63.2939 37.0025 63.9425 36.3568 63.9425 34.6206V28.4885H67.6016V34.7318C67.6016 38.1528 65.6141 40.1028 62.2253 40.1028C58.8364 40.1028 56.8447 38.14 56.8447 34.7318Z" fill="white"/>
<path d="M69.4727 28.4885H73.2149V36.8742H78.2046V39.8419H69.4727V28.4885Z" fill="white"/>
<path d="M88.7746 37.862H84.5791L83.839 39.8419H80.0552L84.8785 28.4885H88.5376L93.3651 39.8419H89.5148L88.7746 37.862ZM87.7517 35.1081L86.679 32.2516L85.6062 35.1081H87.7517Z" fill="white"/>
<path d="M25.8799 38.1441C26.4536 37.1713 26.7655 36.0591 26.7834 34.9215C26.8014 33.784 26.5248 32.662 25.9821 31.6706C25.4393 30.6792 24.65 29.8541 23.6949 29.2799C22.7398 28.7057 21.6535 28.4031 20.5472 28.4031C19.4409 28.4031 18.3545 28.7057 17.3994 29.2799C16.4444 29.8541 15.655 30.6792 15.1123 31.6706C14.5695 32.662 14.293 33.784 14.3109 34.9215C14.3289 36.0591 14.6407 37.1713 15.2145 38.1441H13.6968V39.8546H27.4184V38.1441H25.8799ZM20.5451 32.3027C21.0385 32.3027 21.5209 32.4532 21.9312 32.7351C22.3414 33.0171 22.6612 33.4178 22.85 33.8866C23.0388 34.3554 23.0883 34.8713 22.992 35.369C22.8957 35.8667 22.6581 36.3239 22.3092 36.6827C21.9603 37.0416 21.5158 37.2859 21.0318 37.3849C20.5479 37.4839 20.0462 37.4331 19.5904 37.2389C19.1345 37.0447 18.7449 36.7159 18.4707 36.2939C18.1966 35.872 18.0503 35.3759 18.0503 34.8685C18.0503 34.188 18.3131 33.5354 18.781 33.0542C19.2489 32.5731 19.8834 32.3027 20.5451 32.3027Z" fill="white"/>
<path d="M25.8799 38.1441C26.4536 37.1713 26.7654 36.0591 26.7834 34.9215C26.8014 33.784 26.5248 32.662 25.9821 31.6706C25.4393 30.6792 24.6499 29.8541 23.6949 29.2799C22.7398 28.7057 21.6534 28.4031 20.5471 28.4031C19.4409 28.4031 18.3545 28.7057 17.3994 29.2799C16.4444 29.8541 15.655 30.6792 15.1122 31.6706C14.5695 32.662 14.2929 33.784 14.3109 34.9215C14.3288 36.0591 14.6407 37.1713 15.2144 38.1441H25.8799ZM20.5451 32.3027C21.0385 32.3027 21.5208 32.4532 21.9311 32.7351C22.3414 33.0171 22.6612 33.4178 22.85 33.8866C23.0388 34.3554 23.0882 34.8713 22.992 35.369C22.8957 35.8667 22.6581 36.3239 22.3092 36.6827C21.9603 37.0416 21.5157 37.2859 21.0318 37.3849C20.5478 37.4839 20.0462 37.4331 19.5903 37.2389C19.1345 37.0447 18.7448 36.7159 18.4707 36.2939C18.1965 35.872 18.0502 35.3759 18.0502 34.8685C18.0502 34.188 18.3131 33.5354 18.781 33.0542C19.2488 32.5731 19.8834 32.3027 20.5451 32.3027Z" fill="white"/>
</svg>
